<?xml version="1.0" encoding="iso-8859-1"?>
<!-- Generator: Adobe Illustrator 23.0.2, SVG Export Plug-In . SVG Version: 6.00 Build 0)  -->
<svg version="1.1" xmlns="http://www.w3.org/2000/svg" xmlns:xlink="http://www.w3.org/1999/xlink" x="0px" y="0px"
	 viewBox="0 0 200 135" style="enable-background:new 0 0 200 135;" xml:space="preserve">
<g id="cbaker_x5F_logo">
	<g>
		<g>
			<path d="M25,35h17.793c22.289,0,23.15,15.975,23.15,18.844c0,8.323-5.262,12.245-7.749,14.254
				c7.079,2.869,11.766,9.279,11.766,17.411c0,6.791-3.157,13.009-8.131,16.357c-6.027,3.539-10.714,4.018-19.037,3.922H25V35z
				 M32.079,65.516h8.896c5.548,0,8.705-0.287,12.149-2.008c3.348-1.722,5.74-5.74,5.74-9.949c0-3.253-1.148-5.549-2.965-7.749
				c-2.774-3.156-7.079-4.4-14.349-4.4h-9.47V65.516z M32.079,99.379h9.949c5.931,0,9.566-0.287,13.392-1.817
				c4.401-1.818,7.462-6.697,7.462-12.053c0-5.453-3.636-10.14-8.323-11.959c-3.348-1.339-6.218-1.625-13.775-1.625h-8.705V99.379z"
				/>
			<path d="M106.242,105.789h-3.766v-5.166h-0.107c-3.229,4.844-8.394,5.865-11.461,5.865c-9.254,0-15.818-7.048-15.818-15.496
				c0-7.856,6.188-15.389,15.818-15.389c3.175,0,8.34,1.023,11.461,5.919h0.107v-5.166h3.766V105.789z M90.907,103.098
				c6.349,0,11.784-5.111,11.784-11.998c0-6.457-5.004-12.107-11.784-12.107c-6.456,0-12.052,4.681-12.052,12.161
				C78.855,97.718,83.697,103.098,90.907,103.098z"/>
			<path d="M113.345,65.972h3.766v28.355h0.107l13.721-17.971h4.842L124.16,91.208l12.214,14.581h-4.842l-9.685-11.622l-4.735,6.027
				v5.596h-3.766V65.972z"/>
			<path d="M141.707,92.445c0.269,5.757,5.65,10.653,11.407,10.653c5.381-0.107,9.201-3.282,10.546-6.941h3.981
				c-2.044,5.865-7.694,10.331-14.474,10.331c-8.232,0-15.334-6.672-15.334-15.388c0-8.34,6.725-15.336,15.281-15.497
				c6.457,0.054,11.03,3.874,13.129,7.533c1.991,3.175,2.421,6.456,2.26,9.309H141.707z M164.683,89.056
				c-1.184-6.941-6.833-10.062-11.515-10.062c-4.627,0-10.384,3.121-11.46,10.062H164.683z"/>
			<path d="M174.261,76.357h3.766v4.25h0.107c1.776-4.143,5.112-4.789,8.286-5.004v3.982c-2.636,0.215-4.896,1.184-6.349,2.905
				c-1.291,1.615-2.045,3.713-2.045,6.08v17.218h-3.766V76.357z"/>
		</g>
		<g>
			<path d="M27.342,134.696H25v-16.044h4.64c3.838,0,5.659,1.994,5.659,4.856c0,2.862-1.821,4.857-5.659,4.857h-2.298V134.696z
				 M27.342,126.219h2.298c2.667,0,3.318-1.519,3.318-2.711c0-1.192-0.651-2.71-3.318-2.71h-2.298V126.219z"/>
			<path d="M46.289,134.696v-6.981h-6.613v6.981h-2.342v-16.044h2.342v6.915h6.613v-6.915h2.342v16.044H46.289z"/>
			<path d="M59.404,135c-4.792,0-8.348-3.925-8.348-8.326c0-4.358,3.448-8.326,8.348-8.326c4.77,0,8.347,3.794,8.347,8.368
				C67.751,131.097,64.173,135,59.404,135z M59.404,120.495c-4.141,0-6.006,3.621-6.006,6.179c0,2.623,1.887,6.179,6.006,6.179
				c4.141,0,6.005-3.599,6.005-6.115C65.409,123.899,63.393,120.495,59.404,120.495z"/>
			<path d="M71.479,134.696v-13.897h-3.079v-2.146h8.499v2.146h-3.079v13.897H71.479z"/>
			<path d="M85.92,135c-4.792,0-8.348-3.925-8.348-8.326c0-4.358,3.448-8.326,8.348-8.326c4.77,0,8.347,3.794,8.347,8.368
				C94.267,131.097,90.69,135,85.92,135z M85.92,120.495c-4.141,0-6.006,3.621-6.006,6.179c0,2.623,1.887,6.179,6.006,6.179
				c4.141,0,6.005-3.599,6.005-6.115C91.925,123.899,89.909,120.495,85.92,120.495z"/>
			<path d="M108.574,122.684c-0.672-0.736-2.016-2.189-4.38-2.189c-3.339,0-5.941,2.862-5.941,6.222
				c0,3.534,2.927,6.136,5.962,6.136c0.456,0,3.989-0.044,5.529-3.99h-7.48v-2.146h10.147c-0.087,5.378-4.38,8.283-8.283,8.283
				c-4.683,0-8.217-3.795-8.217-8.283c0-4.618,3.577-8.368,8.196-8.368c2.732,0,5.637,1.452,7.198,4.336H108.574z"/>
			<path d="M122.186,134.696l-5.29-7.437h-0.043v7.437h-2.342v-16.044h4.965c2.255,0,3.426,0.542,4.271,1.344
				c1.02,0.975,1.475,2.45,1.475,3.795c0,4.25-3.556,4.922-4.596,4.922l4.488,5.984H122.186z M116.852,126.934h1.604
				c0.954,0,4.423-0.043,4.423-3.143c0-1.345-0.911-2.992-3.555-2.992h-2.472V126.934z"/>
			<path d="M138.054,134.696l-1.778-4.726h-5.767l-1.778,4.726h-2.472l6.092-16.044h2.103l6.092,16.044H138.054z M135.474,127.824
				l-2.038-6.136h-0.043l-2.06,6.136H135.474z"/>
			<path d="M144.556,134.696h-2.342v-16.044h4.64c3.838,0,5.659,1.994,5.659,4.856c0,2.862-1.821,4.857-5.659,4.857h-2.298V134.696z
				 M144.556,126.219h2.298c2.667,0,3.318-1.519,3.318-2.711c0-1.192-0.651-2.71-3.318-2.71h-2.298V126.219z"/>
			<path d="M163.503,134.696v-6.981h-6.613v6.981h-2.342v-16.044h2.342v6.915h6.613v-6.915h2.342v16.044H163.503z"/>
			<path d="M172.715,134.696v-5.789l-4.987-10.255h2.623l3.534,7.523l3.512-7.523H180l-4.943,10.255v5.789H172.715z"/>
		</g>
		<g>
			<path d="M76.992,20.163h3.766v14.151h0.107c1.13-1.776,4.036-4.52,9.039-4.52c3.605,0,6.618,0.915,9.308,3.605
				c2.206,2.153,3.659,5.542,3.659,10.384v16.196h-3.766V43.783c0-3.82-1.184-6.51-2.798-8.07c-2.045-1.991-4.735-2.529-6.403-2.529
				c-1.668,0-4.358,0.538-6.403,2.529c-1.614,1.56-2.798,4.25-2.744,8.07v16.196h-3.766V20.163z"/>
			<path d="M135.587,59.979h-3.552v-4.574h-0.107c-1.076,2.207-3.928,5.273-9.416,5.273c-5.811,0-8.824-2.798-10.116-4.412
				c-2.098-2.583-2.582-6.35-2.582-9.47v-16.25h3.766v16.196c0,3.712,0.807,6.134,2.098,7.748c2.045,2.313,4.789,2.798,6.833,2.798
				c2.098,0,4.358-0.485,6.241-2.367c1.722-1.722,3.067-3.66,3.067-8.824v-15.55h3.766V59.979z"/>
			<path d="M171.853,51.316c-1.884,3.66-5.811,9.363-14.635,9.363c-9.2,0-15.819-7.156-15.819-15.388
				c0-8.502,7.049-15.497,15.819-15.497c5.165,0,11.784,2.583,14.635,9.631h-4.143c-2.368-4.465-6.672-6.241-10.384-6.241
				c-5.757,0-12.161,4.304-12.161,11.999c0,6.617,5.112,12.106,12.161,12.106c6.133,0,9.2-3.712,10.384-5.973H171.853z"/>
			<path d="M176.971,20.163h3.766v28.355h0.107l13.721-17.971h4.842l-11.622,14.851L200,59.979h-4.842l-9.685-11.622l-4.735,6.027
				v5.596h-3.766V20.163z"/>
			<g>
				<defs>
					<polygon id="SVGID_1_" points="25,85 0,85 0,0 75,0 75,35 25,35 					"/>
				</defs>
				<clipPath id="SVGID_2_">
					<use xlink:href="#SVGID_1_"  style="overflow:visible;"/>
				</clipPath>
				<path style="clip-path:url(#SVGID_2_);" d="M69.642,53.378C62.084,67.25,48.404,73.18,37.021,73.18
					C17.219,73.18,0,57.588,0,36.638S16.741,0,36.925,0C55.101,0,66.58,12.722,69.354,19.323h-7.94
					C53.666,7.748,41.134,6.41,36.83,6.41c-16.549,0-29.75,14.54-29.75,30.324c0,16.549,14.54,30.037,29.846,30.037
					c3.539,0,15.114-0.478,24.776-13.392H69.642z"/>
			</g>
		</g>
	</g>
</g>
<g id="Layer_1">
</g>
</svg>
